<svg width="16" height="16" viewBox="0 0 16 16" xmlns="http://www.w3.org/2000/svg">
<path d="M7.71484 3.19824L8.00001 3.60895L8.00004 3.60893L7.71484 3.19824ZM8.28516 3.19824L7.99996 3.60893L7.99999 3.60895L8.28516 3.19824ZM12.2852 5.97559L12.5704 5.5649L12.5703 5.56488L12.2852 5.97559ZM12.5 13V13.5H13V13H12.5ZM9.5 13H9V13.5H9.5V13ZM9 9V8.5V9ZM7 9V8.5V9ZM6.5 13V13.5H7V13H6.5ZM3.5 13H3V13.5H3.5V13ZM3.71484 5.97559L3.42968 5.56488L3.42965 5.5649L3.71484 5.97559ZM7.71484 3.19824L8.00004 3.60893H7.99996L8.28516 3.19824L8.57035 2.78756C8.22738 2.54938 7.77262 2.54938 7.42965 2.78756L7.71484 3.19824ZM8.28516 3.19824L7.99999 3.60895L12 6.38629L12.2852 5.97559L12.5703 5.56488L8.57032 2.78754L8.28516 3.19824ZM12.2852 5.97559L12 6.38627L12 6.38672H12.5H13C13 6.05949 12.8398 5.75201 12.5704 5.5649L12.2852 5.97559ZM12.5 6.38672H12V13H12.5H13V6.38672H12.5ZM12.5 13V12.5H9.5V13V13.5H12.5V13ZM9.5 13H10V9.5H9.5H9V13H9.5ZM9.5 9.5H10C10 8.94772 9.55228 8.5 9 8.5V9V9.5H9.5ZM9 9V8.5H7V9V9.5H9V9ZM7 9V8.5C6.44772 8.5 6 8.94772 6 9.5H6.5H7V9ZM6.5 9.5H6V13H6.5H7V9.5H6.5ZM6.5 13V12.5H3.5V13V13.5H6.5V13ZM3.5 13H4V6.38672H3.5H3V13H3.5ZM3.5 6.38672H4L4.00004 6.38627L3.71484 5.97559L3.42965 5.5649C3.16021 5.75201 3 6.05949 3 6.38672H3.5ZM3.71484 5.97559L4.00001 6.38629L8.00001 3.60895L7.71484 3.19824L7.42968 2.78754L3.42968 5.56488L3.71484 5.97559Z"/>
</svg>
