<svg width="24" height="24" viewBox="0 0 24 24" fill="none" xmlns="http://www.w3.org/2000/svg">
  <path d="M13.7119 3.2627L14.3359 5.13672C14.6334 5.23774 14.9222 5.35777 15.2012 5.49512L16.9688 4.6123L17.4521 4.37109L19.6299 6.54883L19.3887 7.03223L18.5039 8.7998C18.6408 9.07798 18.7606 9.36568 18.8613 9.66211L20.7373 10.2881L21.25 10.46V13.541L20.7373 13.7119L18.8594 14.3369C18.7585 14.6331 18.6406 14.9208 18.5039 15.1982L19.3887 16.9668L19.6309 17.4512L19.248 17.833L17.4521 19.6289L16.9688 19.3877L15.2002 18.5029C14.9214 18.6402 14.6331 18.7604 14.3359 18.8613L13.7119 20.7373L13.541 21.25H10.46L10.2881 20.7373L9.66211 18.8613C9.36514 18.7604 9.07655 18.6411 8.79785 18.5039L7.03223 19.3877L6.54785 19.6299L6.16602 19.2471L4.37012 17.4512L4.61133 16.9678L5.49414 15.1992C5.35719 14.9209 5.23754 14.6327 5.13672 14.3359L3.2627 13.7119L2.75 13.541V10.46L3.2627 10.2881L5.1377 9.66211C5.23867 9.36553 5.35821 9.07767 5.49512 8.7998L4.61133 7.03223L4.37012 6.54883L6.54785 4.37109L7.03125 4.6123L8.79785 5.49512C9.07662 5.35789 9.36503 5.23766 9.66211 5.13672L10.2881 3.2627L10.46 2.75H13.541L13.7119 3.2627ZM10.9648 5.97656L10.8379 6.35449L10.4541 6.46191C10.0024 6.58769 9.57393 6.76618 9.17578 6.99121L8.82812 7.1875L8.47168 7.00879L6.84375 6.19531L6.19434 6.84473L7.00879 8.47363L7.1875 8.83008L6.99121 9.17773C6.76609 9.57629 6.5873 10.0038 6.46191 10.4541L6.35449 10.8379L5.97656 10.9648L4.25 11.54V12.458L5.97656 13.0342L6.35449 13.1611L6.46191 13.5449C6.58736 13.9957 6.76558 14.4233 6.99023 14.8213L7.18555 15.1689L7.00781 15.5254L6.19434 17.1543L6.84375 17.8037L8.82812 16.8115L9.17578 17.0078C9.57388 17.2329 10.0023 17.4113 10.4541 17.5371L10.8379 17.6445L10.9648 18.0225L11.541 19.75H12.459L13.0342 18.0225L13.1602 17.6445L13.5449 17.5371C13.9966 17.4114 14.4249 17.2329 14.8232 17.0078L15.1709 16.8115L15.5273 16.9902L17.1553 17.8037L17.8047 17.1543L16.9902 15.5264L16.8115 15.1689L17.0078 14.8213C17.233 14.4225 17.4118 13.9952 17.5371 13.5449L17.6445 13.1602L18.0225 13.0342L19.75 12.458V11.54L18.0225 10.9648L17.6445 10.8379L17.5371 10.4541C17.4115 10.0031 17.2334 9.57543 17.0088 9.17773L16.8125 8.83008L16.9912 8.47363L17.8047 6.84473L17.1553 6.19531L15.5273 7.00879L15.1709 7.1875L14.8232 6.99121C14.4248 6.76611 13.9965 6.58758 13.5449 6.46191L13.1611 6.35449L13.0342 5.97656L12.459 4.25H11.541L10.9648 5.97656ZM12 8.75C13.7949 8.75 15.25 10.2051 15.25 12C15.25 13.7949 13.7949 15.25 12 15.25C10.2051 15.25 8.75 13.7949 8.75 12C8.75 10.2051 10.2051 8.75 12 8.75ZM12 10.25C11.0335 10.25 10.25 11.0335 10.25 12C10.25 12.9665 11.0335 13.75 12 13.75C12.9665 13.75 13.75 12.9665 13.75 12C13.75 11.0335 12.9665 10.25 12 10.25Z"/>
</svg>
