<svg width="24" height="24" viewBox="0 0 24 24" xmlns="http://www.w3.org/2000/svg">
<path d="M9.5 3.25C12.9518 3.25 15.75 6.04822 15.75 9.5C15.75 10.9555 15.2503 12.2932 14.416 13.3555L20.5303 19.4697L19.4697 20.5303L13.3555 14.416C12.2932 15.2503 10.9555 15.75 9.5 15.75C6.04822 15.75 3.25 12.9518 3.25 9.5C3.25 6.04822 6.04822 3.25 9.5 3.25ZM9.5 4.75C6.87665 4.75 4.75 6.87665 4.75 9.5C4.75 12.1234 6.87665 14.25 9.5 14.25C12.1234 14.25 14.25 12.1234 14.25 9.5C14.25 6.87665 12.1234 4.75 9.5 4.75Z"/>
</svg>
