<svg width="24" height="24" viewBox="0 0 24 24" stroke="none" xmlns="http://www.w3.org/2000/svg">
<path d="M12 1.25C12.7374 1.25001 13.3375 1.77483 13.7686 2.32227C14.2298 2.90811 14.6538 3.715 15.0137 4.66211C15.2357 5.24651 15.4366 5.89649 15.6104 6.59863C15.0885 6.49621 14.5482 6.41424 13.9932 6.35547C13.8746 5.94145 13.7473 5.55318 13.6113 5.19531C13.2838 4.33319 12.9263 3.67613 12.5908 3.25C12.2251 2.78555 12.0128 2.75003 12 2.75C11.9874 2.75 11.775 2.78539 11.4092 3.25C11.0737 3.67613 10.7162 4.33319 10.3887 5.19531C10.095 5.96833 9.83479 6.88118 9.6377 7.89551C10.394 7.80195 11.1856 7.75 12 7.75C14.5787 7.75 16.9285 8.26729 18.6553 8.99609C19.5158 9.35936 20.2516 9.78833 20.7861 10.2559C21.2945 10.7006 21.75 11.2964 21.75 12C21.75 12.7036 21.2945 13.2994 20.7861 13.7441C20.2517 14.2117 19.5159 14.6406 18.6553 15.0039C17.8704 15.3352 16.9565 15.6218 15.9512 15.8369C15.7431 17.1478 15.4384 18.3337 15.0693 19.3311C14.7184 20.2794 14.2981 21.092 13.8252 21.6826C13.3726 22.2479 12.7561 22.75 12 22.75C11.2439 22.75 10.6274 22.2479 10.1748 21.6826C9.7019 21.092 9.28158 20.2794 8.93066 19.3311C8.56135 18.3329 8.25598 17.1461 8.04785 15.834C7.04304 15.6192 6.12924 15.335 5.34473 15.0039C4.48415 14.6406 3.74835 14.2117 3.21387 13.7441C2.70552 13.2994 2.25 12.7036 2.25 12C2.25002 11.2964 2.70552 10.7006 3.21387 10.2559C3.74835 9.78833 4.48415 9.35936 5.34473 8.99609C6.1345 8.66275 7.05464 8.37379 8.06738 8.1582C8.28751 6.84517 8.60771 5.65872 8.98633 4.66211C9.34618 3.715 9.77017 2.90811 10.2314 2.32227C10.6625 1.77483 11.2626 1.25 12 1.25ZM12 9.25C11.0914 9.25 10.2176 9.31955 9.39941 9.44141C9.30426 10.2545 9.25 11.1125 9.25 12C9.25 12.8869 9.2997 13.7438 9.38867 14.5557L9.38965 14.5566C9.44872 15.0873 9.52616 15.6034 9.62012 16.1016C9.61783 16.1013 9.61556 16.1009 9.61328 16.1006C9.80063 17.1198 10.0503 18.036 10.3369 18.8105C10.6556 19.6718 11.0083 20.3237 11.3457 20.7451C11.7034 21.1918 11.9345 21.25 12 21.25C12.0655 21.25 12.2966 21.1918 12.6543 20.7451C12.9917 20.3237 13.3444 19.6718 13.6631 18.8105C13.9496 18.0361 14.1974 17.1196 14.3848 16.1006C13.6216 16.1959 12.8225 16.25 12 16.25C11.7221 16.25 11.4469 16.2421 11.1748 16.2305C11.0719 15.7479 10.9871 15.2412 10.9199 14.7148C11.2734 14.7363 11.6338 14.75 12 14.75C12.9123 14.75 13.7893 14.6794 14.6104 14.5566C14.6994 13.7445 14.75 12.8873 14.75 12C14.75 11.1124 14.695 10.2545 14.5996 9.44141C13.7817 9.31964 12.9083 9.25 12 9.25ZM16.1387 9.74609C16.2091 10.4729 16.25 11.2269 16.25 12C16.25 12.772 16.213 13.5255 16.1475 14.252C16.8605 14.0742 17.5085 13.8591 18.0723 13.6211C18.8401 13.297 19.4225 12.9445 19.7988 12.6152C20.2013 12.2631 20.25 12.0463 20.25 12C20.25 11.9536 20.2012 11.7368 19.7988 11.3848C19.4225 11.0555 18.8401 10.703 18.0723 10.3789C17.5062 10.1399 16.8551 9.92422 16.1387 9.74609ZM7.8584 9.74609C7.14304 9.92408 6.49309 10.1403 5.92773 10.3789C5.15989 10.703 4.5775 11.0555 4.20117 11.3848C3.79882 11.7368 3.75003 11.9536 3.75 12C3.75 12.0463 3.7987 12.2631 4.20117 12.6152C4.57749 12.9445 5.15988 13.297 5.92773 13.6211C6.49092 13.8588 7.13847 14.0725 7.85059 14.25C7.78521 13.5242 7.75 12.7713 7.75 12C7.75 11.227 7.78865 10.4729 7.8584 9.74609Z"/>
</svg>
